<?xml version="1.0" encoding="UTF-8"?>
<svg width="24px" height="24px" viewBox="0 0 24 24" version="1.1" xmlns="http://www.w3.org/2000/svg" xmlns:xlink="http://www.w3.org/1999/xlink">
    <!-- Generator: Sketch 44.1 (41455) - http://www.bohemiancoding.com/sketch -->
    <title>ic-facebook-normal</title>
    <desc>Created with Sketch.</desc>
    <defs></defs>
    <g id="Landing" stroke="none" stroke-width="1" fill="none" fill-rule="evenodd">
        <g id="Mockup-main-tags" transform="translate(-150.000000, -3325.000000)" fill="#2C3E50">
            <g id="footer" transform="translate(0.000000, 3019.000000)">
                <path d="M151.32458,306.000036 C150.592963,306.000036 150.000009,306.592988 150.000009,307.324602 L150.000009,328.67538 C150.000009,329.406904 150.592963,330.000036 151.32458,330.000036 L162.819211,330.000036 L162.819211,320.705954 L159.691497,320.705954 L159.691497,317.083855 L162.819211,317.083855 L162.819211,314.412693 C162.819211,311.312867 164.712457,309.624922 167.477779,309.624922 C168.80244,309.624922 169.940869,309.723478 170.272597,309.76754 L170.272597,313.007106 L168.354712,313.008005 C166.850834,313.008005 166.559572,313.722623 166.559572,314.771306 L166.559572,317.083855 L170.146344,317.083855 L169.679372,320.705954 L166.559572,320.705954 L166.559572,330.000036 L172.675438,330.000036 C173.406965,330.000036 174.000009,329.406904 174.000009,328.67538 L174.000009,307.324602 C174.000009,306.592988 173.406965,306.000036 172.675438,306.000036 L151.32458,306.000036 Z" id="ic-facebook-normal"></path>
            </g>
        </g>
    </g>
</svg>