<?xml version="1.0" encoding="UTF-8"?>
<svg width="24px" height="24px" viewBox="0 0 24 24" version="1.1" xmlns="http://www.w3.org/2000/svg" xmlns:xlink="http://www.w3.org/1999/xlink">
    <!-- Generator: Sketch 44.1 (41455) - http://www.bohemiancoding.com/sketch -->
    <title>ic-linkedin-normal</title>
    <desc>Created with Sketch.</desc>
    <defs></defs>
    <g id="Landing" stroke="none" stroke-width="1" fill="none" fill-rule="evenodd">
        <g id="Mockup-main-tags" transform="translate(-290.000000, -3325.000000)" fill="#2C3E50">
            <g id="footer" transform="translate(0.000000, 3019.000000)">
                <path d="M307.152331,327 L307.152331,321.30535 C307.152331,319.947631 307.127102,318.200727 305.15209,318.200727 C303.149688,318.200727 302.844065,319.68045 302.844065,321.208565 L302.844065,327 L299,327 L299,315.290356 L302.689092,315.290356 L302.689092,316.891401 L302.741711,316.891401 C303.254926,315.970578 304.511293,315 306.38395,315 C310.279914,315 311,317.424401 311,320.578098 L311,327 L307.152331,327 Z M293,310.999677 C293,309.89585 293.892765,309 295.000646,309 C296.104005,309 297,309.89585 297,310.999677 C297,312.10415 296.104005,313 295.000646,313 C293.892765,313 293,312.10415 293,310.999677 Z M293,327 L297,327 L297,315 L293,315 L293,327 Z M312.224617,306 L291.770716,306 C290.794022,306 290,306.774667 290,307.730667 L290,328.268 C290,329.224 290.794022,330 291.770716,330 L312.224617,330 C313.203978,330 314,329.224 314,328.268 L314,307.730667 C314,306.774667 313.203978,306 312.224617,306 L312.224617,306 Z" id="ic-linkedin-normal"></path>
            </g>
        </g>
    </g>
</svg>