<?xml version="1.0" encoding="UTF-8"?>
<svg width="20px" height="19px" viewBox="0 0 20 19" version="1.1" xmlns="http://www.w3.org/2000/svg" xmlns:xlink="http://www.w3.org/1999/xlink">
    <!-- Generator: Sketch 44.1 (41455) - http://www.bohemiancoding.com/sketch -->
    <title>ic-star-normal copy 2</title>
    <desc>Created with Sketch.</desc>
    <defs></defs>
    <g id="Landing" stroke="none" stroke-width="1" fill="none" fill-rule="evenodd">
        <g id="Mockup-main-tags" transform="translate(-1040.000000, -2395.000000)" fill-rule="nonzero" fill="#16161D">
            <g id="procurements" transform="translate(0.000000, 1723.000000)">
                <g id="Star" transform="translate(1040.000000, 672.000000)">
                    <path d="M9.999918,15.3247383 L15.0445906,17.9588777 C15.6034449,18.2506905 15.7932384,18.1129365 15.686877,17.4970111 L14.7232118,11.9165493 L18.8051878,7.96461407 C19.2563693,7.52780598 19.1834936,7.30711539 18.5597917,7.21710136 L12.9194299,6.40307199 L10.3968089,1.32637818 C10.1176724,0.764625042 9.88184217,0.765271872 9.60302714,1.32637818 L7.08040611,6.40307199 L1.44004433,7.21710136 C0.815626822,7.30721866 0.743980183,7.52830314 1.19464818,7.96461407 L5.27662418,11.9165493 L4.31295898,17.4970111 C4.20778431,18.1060641 4.40261511,18.2474405 4.95524537,17.9588777 L9.999918,15.3247383 Z M5.37780897,18.7605551 C4.1572858,19.3978666 3.18378518,18.6914587 3.41653044,17.3436607 L4.29905625,12.2330667 L0.560441602,8.61355425 C-0.430352819,7.65432387 -0.0624874165,6.51917878 1.30951876,6.32116784 L6.47694745,5.57539321 L8.78771725,0.925043174 C9.39977499,-0.306703359 10.5984274,-0.309990995 11.2121187,0.925043174 L13.5228886,5.57539321 L18.6903172,6.32116784 C20.0586674,6.51865114 20.4328386,7.65175848 19.4393944,8.61355425 L15.7007797,12.2330667 L16.5833056,17.3436607 C16.8172273,18.6982713 15.8488284,19.4011448 14.622027,18.7605551 L9.999918,16.3470626 L5.37780897,18.7605551 Z"></path>
                </g>
            </g>
        </g>
    </g>
</svg>