<?xml version="1.0" encoding="UTF-8"?>
<svg width="34px" height="24px" viewBox="0 0 34 24" version="1.1" xmlns="http://www.w3.org/2000/svg" xmlns:xlink="http://www.w3.org/1999/xlink">
    <!-- Generator: Sketch 44.1 (41455) - http://www.bohemiancoding.com/sketch -->
    <title>ic-youtube-normal</title>
    <desc>Created with Sketch.</desc>
    <defs></defs>
    <g id="Landing" stroke="none" stroke-width="1" fill="none" fill-rule="evenodd">
        <g id="Mockup-main-tags" transform="translate(-215.000000, -3325.000000)" fill="#2C3E50">
            <g id="footer" transform="translate(0.000000, 3019.000000)">
                <path d="M231.992627,306 C231.992627,306 224.855832,306 220.097825,306.345189 L220.097825,306.345189 C219.433202,306.42473 217.984527,306.431478 216.691164,307.790555 L216.691164,307.790555 C215.671779,308.826057 215.340017,311.177507 215.340017,311.177507 L215.340017,311.177507 C215.340017,311.177507 215,313.938888 215,316.700203 L215,316.700203 L215,319.289007 C215,322.050321 215.340017,324.811669 215.340017,324.811669 L215.340017,324.811669 C215.340017,324.811669 215.671779,327.163153 216.691164,328.198655 L216.691164,328.198655 C217.984527,329.557765 219.683413,329.514804 220.440138,329.657216 L220.440138,329.657216 C223.160208,329.918989 232.000017,330 232.000017,330 L232.000017,330 C232.000017,330 239.144334,329.98921 243.902175,329.644054 L243.902175,329.644054 C244.566731,329.564479 246.015972,329.557765 247.308836,328.198655 L247.308836,328.198655 C248.328221,327.163153 248.660449,324.811669 248.660449,324.811669 L248.660449,324.811669 C248.660449,324.811669 249,322.050321 249,319.289007 L249,319.289007 L249,316.700203 C249,313.938888 248.660449,311.177507 248.660449,311.177507 L248.660449,311.177507 C248.660449,311.177507 248.328221,308.826057 247.308836,307.790555 L247.308836,307.790555 C246.015972,306.431478 244.566731,306.42473 243.902175,306.345189 L243.902175,306.345189 C239.144334,306 232.007373,306 232.007373,306 L232.007373,306 L231.992627,306 Z M228.488339,312.838445 L237.675288,317.648981 L228.489903,322.426111 L228.488339,312.838445 Z" id="ic-youtube-normal"></path>
            </g>
        </g>
    </g>
</svg>