<svg width="24" height="24" viewBox="0 0 24 24" xmlns="http://www.w3.org/2000/svg"><title>ic-linkedin-normal</title><path d="M17.152 21v-5.695c0-1.357-.025-3.104-2-3.104-2.002 0-2.308 1.48-2.308 3.008V21H9V9.29h3.69v1.601h.052C13.255 9.971 14.512 9 16.384 9 20.28 9 21 11.424 21 14.578V21h-3.848zM3 5a2 2 0 1 1 4 0 2 2 0 0 1-4 0zm0 16h4V9H3v12zM22.225 0H1.77C.794 0 0 .775 0 1.73v20.538C0 23.224.794 24 1.77 24h20.455c.979 0 1.775-.776 1.775-1.732V1.731C24 .775 23.204 0 22.225 0z" fill="#2C3E50" fill-rule="evenodd"/></svg>