<svg width="34" height="24" viewBox="0 0 34 24" xmlns="http://www.w3.org/2000/svg"><title>ic-youtube-normal</title><path d="M16.993 0S9.856 0 5.098.345c-.665.08-2.113.086-3.407 1.446C.671 2.826.34 5.178.34 5.178S0 7.938 0 10.7v2.589c0 2.761.34 5.523.34 5.523s.332 2.351 1.351 3.387c1.294 1.359 2.992 1.316 3.75 1.458C8.16 23.92 17 24 17 24s7.144-.01 11.902-.356c.665-.08 2.114-.086 3.407-1.445 1.02-1.036 1.351-3.387 1.351-3.387s.34-2.762.34-5.523V10.7c0-2.761-.34-5.522-.34-5.522s-.332-2.352-1.351-3.387C31.016.43 29.567.425 28.902.345 24.144 0 17.007 0 17.007 0h-.014zm-3.505 6.838l9.187 4.811-9.185 4.777-.002-9.588z" fill="#2C3E50" fill-rule="evenodd"/></svg>